HIERARCHY
ROOT Hips
{
	OFFSET -0.001795 -0.223333 0.028219
	CHANNELS 6 Xposition Yposition Zposition Zrotation Yrotation Xrotation 
	JOINT LeftUpLeg
	{
		OFFSET 0.069520 -0.091406 -0.006815
		CHANNELS 3 Zrotation Yrotation Xrotation
		JOINT LeftLeg
		{
			OFFSET 0.034277 -0.375199 -0.004496
			CHANNELS 3 Zrotation Yrotation Xrotation
			JOINT LeftFoot
			{
				OFFSET -0.013596 -0.397961 -0.043693
				CHANNELS 3 Zrotation Yrotation Xrotation
				JOINT LeftToe
				{
					OFFSET 0.026358 -0.055791 0.119288
					CHANNELS 3 Zrotation Yrotation Xrotation
					End Site
					{
						OFFSET 0.000000 0.000000 0.000000
					}
				}
			}
		}
	}
	JOINT RightUpLeg
	{
		OFFSET -0.067670 -0.090522 -0.004320
		CHANNELS 3 Zrotation Yrotation Xrotation
		JOINT RightLeg
		{
			OFFSET -0.038290 -0.382569 -0.008850
			CHANNELS 3 Zrotation Yrotation Xrotation
			JOINT RightFoot
			{
				OFFSET 0.015774 -0.398415 -0.042312
				CHANNELS 3 Zrotation Yrotation Xrotation
				JOINT RightToe
				{
					OFFSET -0.025372 -0.048144 0.123348
					CHANNELS 3 Zrotation Yrotation Xrotation
					End Site
					{
						OFFSET 0.000000 0.000000 0.000000
					}
				}
			}
		}
	}
	JOINT Spine
	{
		OFFSET -0.002533 0.108963 -0.026696
		CHANNELS 3 Zrotation Yrotation Xrotation
		JOINT Spine1
		{
			OFFSET 0.005487 0.135180 0.001092
			CHANNELS 3 Zrotation Yrotation Xrotation
			JOINT Spine2
			{
				OFFSET 0.001457 0.052922 0.025425
				CHANNELS 3 Zrotation Yrotation Xrotation
				JOINT Neck
				{
					OFFSET -0.002778 0.213870 -0.042857
					CHANNELS 3 Zrotation Yrotation Xrotation
					JOINT Head
					{
						OFFSET 0.005152 0.064970 0.051349
						CHANNELS 3 Zrotation Yrotation Xrotation
						End Site
						{
							OFFSET 0.000000 0.000000 0.000000
						}
					}
				}
				JOINT LeftShoulder
				{
					OFFSET 0.078845 0.121749 -0.034090
					CHANNELS 3 Zrotation Yrotation Xrotation
					JOINT LeftArm
					{
						OFFSET 0.090977 0.030469 -0.008868
						CHANNELS 3 Zrotation Yrotation Xrotation
						JOINT LeftForeArm
						{
							OFFSET 0.259612 -0.012772 -0.027456
							CHANNELS 3 Zrotation Yrotation Xrotation
							JOINT LeftHand
							{
								OFFSET 0.249234 0.008986 -0.001171
								CHANNELS 3 Zrotation Yrotation Xrotation
								End Site
								{
									OFFSET 0.000000 0.000000 0.000000
								}
							}
						}
					}
				}
				JOINT RightShoulder
				{
					OFFSET -0.081759 0.118833 -0.038615
					CHANNELS 3 Zrotation Yrotation Xrotation
					JOINT RightArm
					{
						OFFSET -0.096012 0.032551 -0.009143
						CHANNELS 3 Zrotation Yrotation Xrotation
						JOINT RightForeArm
						{
							OFFSET -0.253742 -0.013329 -0.021401
							CHANNELS 3 Zrotation Yrotation Xrotation
							JOINT RightHand
							{
								OFFSET -0.255298 0.007772 -0.005559
								CHANNELS 3 Zrotation Yrotation Xrotation
								End Site
								{
									OFFSET 0.000000 0.000000 0.000000
								}
							}
						}
					}
				}
			}
		}
	}
}
MOTION
Frames: 16
Frame Time: 0.050000
0.000000 0.945016 0.000000 -1.284796 -1.789308 3.378617 2.784998 0.061211 1.577192 4.628133 -0.246880 -3.572994 1.162146 5.592935 9.382271 0.000000 0.000000 0.000000 -1.917469 0.165876 -1.213524 1.268463 -0.137848 -0.343823 -2.187385 -8.806023 9.916909 0.000000 0.000000 0.000000 5.859558 -0.151861 0.473206 -5.432707 1.864773 -24.312416 -0.685968 5.723355 28.344531 9.673440 -3.712709 -23.768493 0.000000 0.000000 0.000000 -9.845443 -2.113102 -0.083834 -50.944724 0.489771 -8.553293 -9.445813 -33.641896 4.262511 0.000000 0.000000 0.000000 16.782009 -8.316952 -4.383643 57.472877 -1.038435 -8.502808 11.633364 32.846662 5.455538 0.000000 0.000000 0.000000 
0.000198 0.944183 0.000194 -1.378213 -2.443752 3.831625 2.966838 0.085695 1.999483 4.319812 -0.126168 -4.935105 1.426633 6.029121 9.554735 0.000000 0.000000 0.000000 -2.171027 0.207205 -1.597148 1.746014 -0.189319 -0.658037 -1.910520 -8.282695 9.738568 0.000000 0.000000 0.000000 6.018062 -0.156564 0.411006 -6.108785 1.994703 -24.935117 -0.546538 5.896311 28.237190 10.563884 -4.263055 -23.944227 0.000000 0.000000 0.000000 -9.194541 -1.871332 -0.094039 -51.688257 0.169225 -8.553720 -8.332448 -33.520127 3.959529 0.000000 0.000000 0.000000 16.551734 -8.596931 -4.577625 58.423826 -2.568389 -9.291502 11.977029 34.075454 5.796666 0.000000 0.000000 0.000000 
0.000266 0.944030 0.000145 -1.001500 -2.013716 3.868398 2.881887 0.068145 1.744305 3.826444 -0.103948 -4.742961 1.198434 5.655837 9.475814 0.000000 0.000000 0.000000 -2.454912 0.212311 -1.594788 1.595387 -0.176811 -0.661733 -2.153158 -8.680995 9.620152 0.000000 0.000000 0.000000 5.965315 -0.110129 -0.089533 -6.249529 2.021127 -25.443238 -0.817185 5.395306 29.018951 10.104540 -3.879359 -24.859105 0.000000 0.000000 0.000000 -9.126938 -2.538343 0.248948 -51.851180 0.260785 -8.689059 -8.257705 -33.561517 3.980154 0.000000 0.000000 0.000000 16.440548 -8.615397 -4.600482 58.491747 -2.168610 -9.195339 11.870754 32.894127 5.524167 0.000000 0.000000 0.000000 
0.000260 0.943900 0.000123 -1.079553 -2.137603 3.860735 2.951339 0.065478 1.723266 3.828116 -0.111733 -4.641172 1.281616 5.764850 9.398336 0.000000 0.000000 0.000000 -2.484374 0.209662 -1.547017 1.775951 -0.195640 -0.758400 -2.083299 -8.555649 9.618311 0.000000 0.000000 0.000000 5.956442 -0.099092 -0.194977 -6.404337 2.044165 -25.852241 -0.764160 5.417215 29.466516 10.164413 -4.076687 -24.071370 0.000000 0.000000 0.000000 -8.763933 -2.447991 0.249932 -52.389237 0.281545 -8.820868 -7.971294 -33.938500 3.965022 0.000000 0.000000 0.000000 16.291918 -8.673779 -4.616818 58.708507 -2.153271 -9.248849 12.065044 32.574776 5.526365 0.000000 0.000000 0.000000 
0.000141 0.944204 0.000097 -1.067348 -2.042234 3.712520 2.868830 0.073585 1.799571 3.986499 -0.130383 -4.529092 1.223994 5.692861 9.456696 0.000000 0.000000 0.000000 -2.427565 0.200516 -1.461411 1.684239 -0.183716 -0.604368 -2.118859 -8.629513 9.667634 0.000000 0.000000 0.000000 5.752587 -0.096394 -0.162251 -5.771379 1.919911 -25.229113 -1.169794 5.460868 28.594777 10.039518 -4.118084 -23.119413 0.000000 0.000000 0.000000 -8.523816 -2.653402 0.325148 -52.763537 0.394903 -8.853606 -8.249667 -34.217780 4.062173 0.000000 0.000000 0.000000 15.943784 -8.686864 -4.583413 58.757161 -2.167154 -9.149155 11.920786 32.574548 5.473934 0.000000 0.000000 0.000000 
0.000045 0.944303 0.000048 -1.230289 -1.987264 3.677539 2.910997 0.074023 1.830028 4.254921 -0.149396 -4.524646 1.215502 5.682357 9.450291 0.000000 0.000000 0.000000 -2.344186 0.192898 -1.394592 1.876155 -0.203043 -0.643422 -2.108701 -8.632578 9.772951 0.000000 0.000000 0.000000 5.683774 -0.110322 0.007286 -5.733770 1.910371 -25.287896 -1.090793 5.177930 28.628696 9.655870 -3.925016 -23.053344 0.000000 0.000000 0.000000 -8.615014 -2.321555 0.204323 -52.686942 0.209096 -8.755956 -7.960997 -34.151963 3.989909 0.000000 0.000000 0.000000 15.691708 -8.459473 -4.483115 58.729844 -2.104322 -9.111748 11.483477 32.286532 5.257750 0.000000 0.000000 0.000000 
-0.000092 0.944448 -0.000079 -1.200604 -2.052554 3.495972 2.940232 0.097334 2.163240 4.149685 -0.125756 -4.759590 1.202475 5.685387 9.559132 0.000000 0.000000 0.000000 -2.358791 0.177170 -1.199159 1.847035 -0.200724 -0.666625 -2.067606 -8.561502 9.783956 0.000000 0.000000 0.000000 5.494838 -0.123914 0.232407 -5.559866 1.878492 -24.957407 -1.197762 5.247011 28.232569 9.939354 -4.097029 -22.996726 0.000000 0.000000 0.000000 -8.842524 -2.463377 0.237340 -52.736798 0.424297 -8.818775 -8.098071 -34.334621 4.045719 0.000000 0.000000 0.000000 16.034972 -8.302177 -4.432935 58.594000 -1.944401 -8.999859 11.205232 32.205288 5.156895 0.000000 0.000000 0.000000 
-0.000179 0.944454 -0.000288 -1.214926 -2.048306 3.346581 2.897989 0.102633 2.205098 4.266199 -0.147956 -4.567416 1.214430 5.691879 9.503145 0.000000 0.000000 0.000000 -2.202217 0.159449 -1.037297 1.607848 -0.178796 -0.682543 -2.071449 -8.563621 9.764123 0.000000 0.000000 0.000000 5.377415 -0.139181 0.460844 -5.527386 1.870418 -24.941800 -1.211217 5.355966 28.383027 10.141147 -4.175068 -23.208714 0.000000 0.000000 0.000000 -9.122216 -2.496825 0.218175 -52.403606 0.496423 -8.806752 -8.508400 -34.863954 4.229006 0.000000 0.000000 0.000000 16.503507 -8.289541 -4.442052 58.442729 -1.689761 -8.903249 10.878169 32.217370 5.086335 0.000000 0.000000 0.000000 
-0.000185 0.944468 -0.000607 -1.238648 -2.112393 3.305118 2.938104 0.108724 2.303944 4.230027 -0.138042 -4.675202 1.233226 5.727424 9.535710 0.000000 0.000000 0.000000 -2.235408 0.143005 -0.819359 1.701204 -0.196292 -1.042259 -2.006806 -8.467751 9.852869 0.000000 0.000000 0.000000 5.375958 -0.139954 0.479033 -5.654368 1.905725 -24.661938 -1.170765 5.600336 28.274310 10.343975 -4.258254 -23.253959 0.000000 0.000000 0.000000 -9.084784 -2.762816 0.309018 -52.407523 0.426490 -8.775736 -8.701098 -35.137770 4.303158 0.000000 0.000000 0.000000 16.770055 -8.252726 -4.408419 58.455945 -1.676080 -8.897815 10.700604 32.343319 5.078440 0.000000 0.000000 0.000000 
-0.000134 0.944590 -0.001056 -1.234696 -2.021712 3.116849 3.020388 0.116666 2.455802 4.096053 -0.129358 -4.663430 1.171281 5.630803 9.535084 0.000000 0.000000 0.000000 -2.271459 0.130744 -0.668207 1.770839 -0.201512 -0.976525 -2.034055 -8.519795 9.883270 0.000000 0.000000 0.000000 5.266572 -0.154030 0.700191 -5.724865 1.926627 -24.583742 -1.131730 5.776763 28.420953 10.574088 -4.316780 -23.558866 0.000000 0.000000 0.000000 -9.125547 -2.884676 0.331036 -52.182492 0.367810 -8.736058 -9.347154 -35.773685 4.572463 0.000000 0.000000 0.000000 17.056149 -8.110395 -4.301880 58.355499 -1.475395 -8.822978 10.516415 32.406091 5.062888 0.000000 0.000000 0.000000 
0.000020 0.944639 -0.001690 -1.203765 -2.101082 3.019244 3.108939 0.116631 2.482196 3.845722 -0.118858 -4.570847 1.197175 5.664209 9.520548 0.000000 0.000000 0.000000 -2.358823 0.114127 -0.425771 1.833391 -0.214918 -1.313560 -1.965637 -8.416854 9.965740 0.000000 0.000000 0.000000 5.247517 -0.164698 0.847138 -5.837868 1.955748 -24.478943 -1.120543 6.013423 28.458662 10.811892 -4.396939 -23.777773 0.000000 0.000000 0.000000 -8.994808 -3.012387 0.374155 -52.054939 0.328430 -8.710530 -10.091622 -36.307734 4.870100 0.000000 0.000000 0.000000 17.280135 -8.042101 -4.244155 58.268889 -1.405154 -8.794546 10.602462 32.462570 5.114310 0.000000 0.000000 0.000000 
0.000211 0.944739 -0.002422 -1.173399 -2.168289 2.964801 3.189021 0.112063 2.442031 3.608993 -0.109894 -4.460111 1.219058 5.694232 9.518196 0.000000 0.000000 0.000000 -2.447950 0.101970 -0.232517 1.899391 -0.228359 -1.657804 -1.899921 -8.327148 10.078555 0.000000 0.000000 0.000000 5.208662 -0.173896 0.975061 -5.999896 1.991543 -24.566728 -0.924368 6.261750 28.817289 11.189718 -4.524799 -24.251514 0.000000 0.000000 0.000000 -8.826069 -3.111414 0.412516 -51.872071 0.247322 -8.690447 -10.987696 -36.845811 5.232385 0.000000 0.000000 0.000000 17.284676 -7.958642 -4.144141 58.373946 -1.328921 -8.812464 10.613732 32.579545 5.169617 0.000000 0.000000 0.000000 
0.000468 0.944758 -0.003116 -1.184672 -2.413180 2.947248 3.159448 0.111150 2.379494 3.599743 -0.120338 -4.313393 1.344688 5.884713 9.509425 0.000000 0.000000 0.000000 -2.462547 0.096237 -0.138368 1.872507 -0.231301 -1.929479 -1.767232 -8.113457 10.142400 0.000000 0.000000 0.000000 5.257412 -0.178211 1.018757 -6.151070 2.024470 -24.553639 -0.728562 6.552617 29.124356 11.488138 -4.621846 -24.656364 0.000000 0.000000 0.000000 -8.631747 -3.228105 0.469120 -51.756691 0.156098 -8.671136 -11.622375 -37.138084 5.483189 0.000000 0.000000 0.000000 17.445769 -7.831794 -4.051173 58.374372 -1.087646 -8.742921 10.661914 32.606213 5.207953 0.000000 0.000000 0.000000 
0.000706 0.944791 -0.003643 -1.175779 -2.360205 2.833931 3.243662 0.108139 2.370079 3.420862 -0.117275 -4.157297 1.319139 5.830000 9.449097 0.000000 0.000000 0.000000 -2.547224 0.083093 0.059915 1.989625 -0.245266 -2.113920 -1.763295 -8.121295 10.217077 0.000000 0.000000 0.000000 5.195229 -0.200140 1.310530 -6.296257 2.054482 -24.782160 -0.539233 6.675407 29.621951 11.800125 -4.688336 -25.289997 0.000000 0.000000 0.000000 -8.492560 -3.381660 0.537352 -51.472957 0.026421 -8.628201 -12.196069 -37.534773 5.732696 0.000000 0.000000 0.000000 17.671787 -7.698113 -3.945050 58.378601 -0.818524 -8.686805 10.492420 32.613952 5.189450 0.000000 0.000000 0.000000 
0.000964 0.944919 -0.003944 -1.200601 -2.479003 2.753726 3.194522 0.117674 2.465077 3.501418 -0.123500 -4.165362 1.369174 5.916425 9.488928 0.000000 0.000000 0.000000 -2.560729 0.074365 0.182673 2.009485 -0.249116 -2.239286 -1.684835 -8.004312 10.293800 0.000000 0.000000 0.000000 5.257337 -0.215310 1.483249 -6.459479 2.094707 -24.689751 -0.374734 6.759082 29.707690 11.949755 -4.710978 -25.644030 0.000000 0.000000 0.000000 -8.340569 -3.324943 0.526307 -51.384547 0.137149 -8.671288 -12.568227 -37.863190 5.916337 0.000000 0.000000 0.000000 17.740673 -7.568867 -3.873035 58.322711 -0.811711 -8.693238 10.699605 32.667082 5.259756 0.000000 0.000000 0.000000 
0.001226 0.944921 -0.004082 -1.175529 -2.314402 2.689814 3.244941 0.111652 2.413373 3.370640 -0.122092 -4.024012 1.295435 5.785102 9.414608 0.000000 0.000000 0.000000 -2.726833 0.078235 0.195825 2.257233 -0.267331 -2.119604 -1.754062 -8.121965 10.300926 0.000000 0.000000 0.000000 5.154835 -0.233086 1.731479 -6.511863 2.104687 -24.880722 -0.177203 6.676258 30.016092 11.955643 -4.668231 -25.942008 0.000000 0.000000 0.000000 -8.275769 -3.153448 0.461065 -51.256208 0.152733 -8.689982 -13.281390 -37.872596 6.167936 0.000000 0.000000 0.000000 17.864941 -7.568148 -3.864559 58.248241 -0.729387 -8.690749 10.737667 32.865586 5.325535 0.000000 0.000000 0.000000 
